<?xml version="1.0" encoding="utf-8"?>
<!-- Generator: Adobe Illustrator 27.5.0, SVG Export Plug-In . SVG Version: 6.00 Build 0)  -->
<svg version="1.1" id="레이어_1" xmlns="http://www.w3.org/2000/svg" xmlns:xlink="http://www.w3.org/1999/xlink" x="0px"
	 y="0px" viewBox="0 0 48 48" style="enable-background:new 0 0 48 48;" xml:space="preserve">
<path d="M24,26.7c-2.9,0-5.3-0.9-7.2-2.8c-1.9-1.9-2.8-4.2-2.8-7.2s0.9-5.3,2.8-7.2c1.9-1.9,4.2-2.8,7.2-2.8s5.3,0.9,7.2,2.8
	c1.9,1.9,2.8,4.2,2.8,7.2s-0.9,5.3-2.8,7.2C29.3,25.8,26.9,26.7,24,26.7z M2.8,48v-6.2c0-1.7,0.4-3.1,1.3-4.3
	c0.8-1.2,1.9-2.1,3.2-2.7c3-1.3,5.8-2.3,8.5-3s5.4-1,8.2-1s5.5,0.3,8.2,1c2.7,0.7,5.5,1.7,8.5,2.9c1.4,0.6,2.5,1.5,3.3,2.7
	c0.8,1.2,1.3,2.6,1.3,4.3V48H2.8z"/>
</svg>
